<svg width="392" height="45" viewBox="0 0 392 45" fill="none" xmlns="http://www.w3.org/2000/svg">
<path d="M329.95 18C330.3 18 330.596 17.8792 330.838 17.6375C331.079 17.3958 331.2 17.1 331.2 16.75C331.2 16.4 331.079 16.1042 330.838 15.8625C330.596 15.6208 330.3 15.5 329.95 15.5C329.6 15.5 329.304 15.6208 329.062 15.8625C328.821 16.1042 328.7 16.4 328.7 16.75C328.7 17.1 328.821 17.3958 329.062 17.6375C329.304 17.8792 329.6 18 329.95 18ZM329.09 13.2261C329.039 13.7344 329.464 14.15 329.975 14.15C330.486 14.15 330.877 13.7305 330.978 13.2298C331.007 13.0886 331.043 12.962 331.088 12.85C331.213 12.5333 331.567 12.1 332.15 11.55C332.583 11.1167 332.925 10.7042 333.175 10.3125C333.425 9.92083 333.55 9.45 333.55 8.9C333.55 7.96667 333.208 7.25 332.525 6.75C331.842 6.25 331.033 6 330.1 6C329.15 6 328.379 6.25 327.787 6.75C327.417 7.06322 327.117 7.41568 326.886 7.80739C326.655 8.20232 326.884 8.6815 327.31 8.84937C327.786 9.03681 328.34 8.76871 328.652 8.36328C328.687 8.31763 328.724 8.27153 328.762 8.225C329.054 7.875 329.5 7.7 330.1 7.7C330.633 7.7 331.033 7.84583 331.3 8.1375C331.567 8.42917 331.7 8.75 331.7 9.1C331.7 9.43333 331.6 9.74583 331.4 10.0375C331.2 10.3292 330.95 10.6 330.65 10.85C329.917 11.5 329.467 11.9917 329.3 12.325C329.2 12.5257 329.13 12.826 329.09 13.2261ZM330 22C328.617 22 327.317 21.7375 326.1 21.2125C324.883 20.6875 323.825 19.975 322.925 19.075C322.025 18.175 321.312 17.1167 320.788 15.9C320.262 14.6833 320 13.3833 320 12C320 10.6167 320.262 9.31667 320.788 8.1C321.312 6.88333 322.025 5.825 322.925 4.925C323.825 4.025 324.883 3.3125 326.1 2.7875C327.317 2.2625 328.617 2 330 2C331.383 2 332.683 2.2625 333.9 2.7875C335.117 3.3125 336.175 4.025 337.075 4.925C337.975 5.825 338.688 6.88333 339.212 8.1C339.737 9.31667 340 10.6167 340 12C340 13.3833 339.737 14.6833 339.212 15.9C338.688 17.1167 337.975 18.175 337.075 19.075C336.175 19.975 335.117 20.6875 333.9 21.2125C332.683 21.7375 331.383 22 330 22ZM330 20C332.233 20 334.125 19.225 335.675 17.675C337.225 16.125 338 14.2333 338 12C338 9.76667 337.225 7.875 335.675 6.325C334.125 4.775 332.233 4 330 4C327.767 4 325.875 4.775 324.325 6.325C322.775 7.875 322 9.76667 322 12C322 14.2333 322.775 16.125 324.325 17.675C325.875 19.225 327.767 20 330 20Z" fill="black" fill-opacity="0.87"/>
<path d="M321.072 33.28C321.576 33.28 322.024 33.388 322.416 33.604C322.816 33.82 323.128 34.14 323.352 34.564C323.584 34.988 323.7 35.5 323.7 36.1V40H322.344V36.304C322.344 35.712 322.196 35.26 321.9 34.948C321.604 34.628 321.2 34.468 320.688 34.468C320.176 34.468 319.768 34.628 319.464 34.948C319.168 35.26 319.02 35.712 319.02 36.304V40H317.652V31.12H319.02V34.156C319.252 33.876 319.544 33.66 319.896 33.508C320.256 33.356 320.648 33.28 321.072 33.28ZM331.505 36.532C331.505 36.78 331.489 37.004 331.457 37.204H326.405C326.445 37.732 326.641 38.156 326.993 38.476C327.345 38.796 327.777 38.956 328.289 38.956C329.025 38.956 329.545 38.648 329.849 38.032H331.325C331.125 38.64 330.761 39.14 330.233 39.532C329.713 39.916 329.065 40.108 328.289 40.108C327.657 40.108 327.089 39.968 326.585 39.688C326.089 39.4 325.697 39 325.409 38.488C325.129 37.968 324.989 37.368 324.989 36.688C324.989 36.008 325.125 35.412 325.397 34.9C325.677 34.38 326.065 33.98 326.561 33.7C327.065 33.42 327.641 33.28 328.289 33.28C328.913 33.28 329.469 33.416 329.957 33.688C330.445 33.96 330.825 34.344 331.097 34.84C331.369 35.328 331.505 35.892 331.505 36.532ZM330.077 36.1C330.069 35.596 329.889 35.192 329.537 34.888C329.185 34.584 328.749 34.432 328.229 34.432C327.757 34.432 327.353 34.584 327.017 34.888C326.681 35.184 326.481 35.588 326.417 36.1H330.077ZM334.219 31.12V40H332.851V31.12H334.219ZM337.383 34.36C337.615 34.056 337.931 33.8 338.331 33.592C338.731 33.384 339.183 33.28 339.687 33.28C340.263 33.28 340.787 33.424 341.259 33.712C341.739 33.992 342.115 34.388 342.387 34.9C342.659 35.412 342.795 36 342.795 36.664C342.795 37.328 342.659 37.924 342.387 38.452C342.115 38.972 341.739 39.38 341.259 39.676C340.787 39.964 340.263 40.108 339.687 40.108C339.183 40.108 338.735 40.008 338.343 39.808C337.951 39.6 337.631 39.344 337.383 39.04V43.144H336.015V33.388H337.383V34.36ZM341.403 36.664C341.403 36.208 341.307 35.816 341.115 35.488C340.931 35.152 340.683 34.9 340.371 34.732C340.067 34.556 339.739 34.468 339.387 34.468C339.043 34.468 338.715 34.556 338.403 34.732C338.099 34.908 337.851 35.164 337.659 35.5C337.475 35.836 337.383 36.232 337.383 36.688C337.383 37.144 337.475 37.544 337.659 37.888C337.851 38.224 338.099 38.48 338.403 38.656C338.715 38.832 339.043 38.92 339.387 38.92C339.739 38.92 340.067 38.832 340.371 38.656C340.683 38.472 340.931 38.208 341.115 37.864C341.307 37.52 341.403 37.12 341.403 36.664Z" fill="black" fill-opacity="0.87"/>
<path d="M373.95 18C374.3 18 374.596 17.8792 374.838 17.6375C375.079 17.3958 375.2 17.1 375.2 16.75C375.2 16.4 375.079 16.1042 374.838 15.8625C374.596 15.6208 374.3 15.5 373.95 15.5C373.6 15.5 373.304 15.6208 373.062 15.8625C372.821 16.1042 372.7 16.4 372.7 16.75C372.7 17.1 372.821 17.3958 373.062 17.6375C373.304 17.8792 373.6 18 373.95 18ZM373.09 13.2261C373.039 13.7344 373.464 14.15 373.975 14.15C374.486 14.15 374.877 13.7305 374.978 13.2298C375.007 13.0886 375.043 12.962 375.088 12.85C375.213 12.5333 375.567 12.1 376.15 11.55C376.583 11.1167 376.925 10.7042 377.175 10.3125C377.425 9.92083 377.55 9.45 377.55 8.9C377.55 7.96667 377.208 7.25 376.525 6.75C375.842 6.25 375.033 6 374.1 6C373.15 6 372.379 6.25 371.787 6.75C371.417 7.06322 371.117 7.41568 370.886 7.80739C370.655 8.20232 370.884 8.6815 371.31 8.84937C371.786 9.03681 372.34 8.76871 372.652 8.36328C372.687 8.31763 372.724 8.27153 372.762 8.225C373.054 7.875 373.5 7.7 374.1 7.7C374.633 7.7 375.033 7.84583 375.3 8.1375C375.567 8.42917 375.7 8.75 375.7 9.1C375.7 9.43333 375.6 9.74583 375.4 10.0375C375.2 10.3292 374.95 10.6 374.65 10.85C373.917 11.5 373.467 11.9917 373.3 12.325C373.2 12.5257 373.13 12.826 373.09 13.2261ZM374 22C372.617 22 371.317 21.7375 370.1 21.2125C368.883 20.6875 367.825 19.975 366.925 19.075C366.025 18.175 365.312 17.1167 364.788 15.9C364.262 14.6833 364 13.3833 364 12C364 10.6167 364.262 9.31667 364.788 8.1C365.312 6.88333 366.025 5.825 366.925 4.925C367.825 4.025 368.883 3.3125 370.1 2.7875C371.317 2.2625 372.617 2 374 2C375.383 2 376.683 2.2625 377.9 2.7875C379.117 3.3125 380.175 4.025 381.075 4.925C381.975 5.825 382.688 6.88333 383.212 8.1C383.737 9.31667 384 10.6167 384 12C384 13.3833 383.737 14.6833 383.212 15.9C382.688 17.1167 381.975 18.175 381.075 19.075C380.175 19.975 379.117 20.6875 377.9 21.2125C376.683 21.7375 375.383 22 374 22Z" fill="#3366FF"/>
<path d="M365.072 33.28C365.576 33.28 366.024 33.388 366.416 33.604C366.816 33.82 367.128 34.14 367.352 34.564C367.584 34.988 367.7 35.5 367.7 36.1V40H366.344V36.304C366.344 35.712 366.196 35.26 365.9 34.948C365.604 34.628 365.2 34.468 364.688 34.468C364.176 34.468 363.768 34.628 363.464 34.948C363.168 35.26 363.02 35.712 363.02 36.304V40H361.652V31.12H363.02V34.156C363.252 33.876 363.544 33.66 363.896 33.508C364.256 33.356 364.648 33.28 365.072 33.28ZM375.505 36.532C375.505 36.78 375.489 37.004 375.457 37.204H370.405C370.445 37.732 370.641 38.156 370.993 38.476C371.345 38.796 371.777 38.956 372.289 38.956C373.025 38.956 373.545 38.648 373.849 38.032H375.325C375.125 38.64 374.761 39.14 374.233 39.532C373.713 39.916 373.065 40.108 372.289 40.108C371.657 40.108 371.089 39.968 370.585 39.688C370.089 39.4 369.697 39 369.409 38.488C369.129 37.968 368.989 37.368 368.989 36.688C368.989 36.008 369.125 35.412 369.397 34.9C369.677 34.38 370.065 33.98 370.561 33.7C371.065 33.42 371.641 33.28 372.289 33.28C372.913 33.28 373.469 33.416 373.957 33.688C374.445 33.96 374.825 34.344 375.097 34.84C375.369 35.328 375.505 35.892 375.505 36.532ZM374.077 36.1C374.069 35.596 373.889 35.192 373.537 34.888C373.185 34.584 372.749 34.432 372.229 34.432C371.757 34.432 371.353 34.584 371.017 34.888C370.681 35.184 370.481 35.588 370.417 36.1H374.077ZM378.219 31.12V40H376.851V31.12H378.219ZM381.383 34.36C381.615 34.056 381.931 33.8 382.331 33.592C382.731 33.384 383.183 33.28 383.687 33.28C384.263 33.28 384.787 33.424 385.259 33.712C385.739 33.992 386.115 34.388 386.387 34.9C386.659 35.412 386.795 36 386.795 36.664C386.795 37.328 386.659 37.924 386.387 38.452C386.115 38.972 385.739 39.38 385.259 39.676C384.787 39.964 384.263 40.108 383.687 40.108C383.183 40.108 382.735 40.008 382.343 39.808C381.951 39.6 381.631 39.344 381.383 39.04V43.144H380.015V33.388H381.383V34.36ZM385.403 36.664C385.403 36.208 385.307 35.816 385.115 35.488C384.931 35.152 384.683 34.9 384.371 34.732C384.067 34.556 383.739 34.468 383.387 34.468C383.043 34.468 382.715 34.556 382.403 34.732C382.099 34.908 381.851 35.164 381.659 35.5C381.475 35.836 381.383 36.232 381.383 36.688C381.383 37.144 381.475 37.544 381.659 37.888C381.851 38.224 382.099 38.48 382.403 38.656C382.715 38.832 383.043 38.92 383.387 38.92C383.739 38.92 384.067 38.832 384.371 38.656C384.683 38.472 384.931 38.208 385.115 37.864C385.307 37.52 385.403 37.12 385.403 36.664Z" fill="#3366FF"/>
<path d="M221.323 17.2191C220.344 18.2021 218.754 18.2038 217.773 17.2231L216.7 16.15C216.313 15.7634 216.313 15.1366 216.7 14.75C217.087 14.3635 217.713 14.3635 218.1 14.75L218.994 15.6438C219.287 15.9372 219.763 15.9372 220.056 15.6438L223.062 12.6384C223.455 12.2454 224.093 12.2483 224.482 12.6446C224.866 13.0355 224.864 13.6626 224.477 14.0508L221.323 17.2191ZM221.323 9.21915C220.344 10.2021 218.754 10.2038 217.773 9.22308L216.7 8.15005C216.313 7.76345 216.313 7.13665 216.7 6.75005C217.087 6.36345 217.713 6.36345 218.1 6.75005L218.994 7.6438C219.287 7.9372 219.763 7.9372 220.056 7.6438L223.062 4.63836C223.455 4.24543 224.093 4.24826 224.482 4.64464C224.866 5.03548 224.864 5.66256 224.477 6.05084L221.323 9.21915ZM228 17C227.448 17 227 16.5523 227 16C227 15.4478 227.448 15 228 15H235C235.552 15 236 15.4478 236 16C236 16.5523 235.552 17 235 17H228ZM228 9.00005C227.448 9.00005 227 8.55233 227 8.00005C227 7.44776 227.448 7.00005 228 7.00005H235C235.552 7.00005 236 7.44776 236 8.00005C236 8.55233 235.552 9.00005 235 9.00005H228Z" fill="black" fill-opacity="0.87"/>
<path d="M219.666 31.12V40H218.298V31.12H219.666ZM222.159 32.512C221.911 32.512 221.703 32.428 221.535 32.26C221.367 32.092 221.283 31.884 221.283 31.636C221.283 31.388 221.367 31.18 221.535 31.012C221.703 30.844 221.911 30.76 222.159 30.76C222.399 30.76 222.603 30.844 222.771 31.012C222.939 31.18 223.023 31.388 223.023 31.636C223.023 31.884 222.939 32.092 222.771 32.26C222.603 32.428 222.399 32.512 222.159 32.512ZM222.831 33.388V40H221.463V33.388H222.831ZM227.027 40.108C226.507 40.108 226.039 40.016 225.623 39.832C225.215 39.64 224.891 39.384 224.651 39.064C224.411 38.736 224.283 38.372 224.267 37.972H225.683C225.707 38.252 225.839 38.488 226.079 38.68C226.327 38.864 226.635 38.956 227.003 38.956C227.387 38.956 227.683 38.884 227.891 38.74C228.107 38.588 228.215 38.396 228.215 38.164C228.215 37.916 228.095 37.732 227.855 37.612C227.623 37.492 227.251 37.36 226.739 37.216C226.243 37.08 225.839 36.948 225.527 36.82C225.215 36.692 224.943 36.496 224.711 36.232C224.487 35.968 224.375 35.62 224.375 35.188C224.375 34.836 224.479 34.516 224.687 34.228C224.895 33.932 225.191 33.7 225.575 33.532C225.967 33.364 226.415 33.28 226.919 33.28C227.671 33.28 228.275 33.472 228.731 33.856C229.195 34.232 229.443 34.748 229.475 35.404H228.107C228.083 35.108 227.963 34.872 227.747 34.696C227.531 34.52 227.239 34.432 226.871 34.432C226.511 34.432 226.235 34.5 226.043 34.636C225.851 34.772 225.755 34.952 225.755 35.176C225.755 35.352 225.819 35.5 225.947 35.62C226.075 35.74 226.231 35.836 226.415 35.908C226.599 35.972 226.871 36.056 227.231 36.16C227.711 36.288 228.103 36.42 228.407 36.556C228.719 36.684 228.987 36.876 229.211 37.132C229.435 37.388 229.551 37.728 229.559 38.152C229.559 38.528 229.455 38.864 229.247 39.16C229.039 39.456 228.743 39.688 228.359 39.856C227.983 40.024 227.539 40.108 227.027 40.108ZM232.633 34.504V38.164C232.633 38.412 232.689 38.592 232.801 38.704C232.921 38.808 233.121 38.86 233.401 38.86H234.241V40H233.161C232.545 40 232.073 39.856 231.745 39.568C231.417 39.28 231.253 38.812 231.253 38.164V34.504H230.473V33.388H231.253V31.744H232.633V33.388H234.241V34.504H232.633Z" fill="black" fill-opacity="0.87"/>
<path d="M265.323 17.2191C264.344 18.2021 262.754 18.2038 261.773 17.2231L260.7 16.15C260.313 15.7634 260.313 15.1366 260.7 14.75C261.087 14.3635 261.713 14.3635 262.1 14.75L262.994 15.6438C263.287 15.9372 263.763 15.9372 264.056 15.6438L267.062 12.6384C267.455 12.2454 268.093 12.2483 268.482 12.6446C268.866 13.0355 268.864 13.6626 268.477 14.0508L265.323 17.2191ZM265.323 9.21915C264.344 10.2021 262.754 10.2038 261.773 9.22308L260.7 8.15005C260.313 7.76345 260.313 7.13665 260.7 6.75005C261.087 6.36345 261.713 6.36345 262.1 6.75005L262.994 7.6438C263.287 7.9372 263.763 7.9372 264.056 7.6438L267.062 4.63836C267.455 4.24543 268.093 4.24826 268.482 4.64464C268.866 5.03548 268.864 5.66256 268.477 6.05084L265.323 9.21915ZM272 17C271.448 17 271 16.5523 271 16C271 15.4478 271.448 15 272 15H279C279.552 15 280 15.4478 280 16C280 16.5523 279.552 17 279 17H272ZM272 9.00005C271.448 9.00005 271 8.55233 271 8.00005C271 7.44776 271.448 7.00005 272 7.00005H279C279.552 7.00005 280 7.44776 280 8.00005C280 8.55233 279.552 9.00005 279 9.00005H272Z" fill="#3366FF"/>
<path d="M263.666 31.12V40H262.298V31.12H263.666ZM266.159 32.512C265.911 32.512 265.703 32.428 265.535 32.26C265.367 32.092 265.283 31.884 265.283 31.636C265.283 31.388 265.367 31.18 265.535 31.012C265.703 30.844 265.911 30.76 266.159 30.76C266.399 30.76 266.603 30.844 266.771 31.012C266.939 31.18 267.023 31.388 267.023 31.636C267.023 31.884 266.939 32.092 266.771 32.26C266.603 32.428 266.399 32.512 266.159 32.512ZM266.831 33.388V40H265.463V33.388H266.831ZM271.027 40.108C270.507 40.108 270.039 40.016 269.623 39.832C269.215 39.64 268.891 39.384 268.651 39.064C268.411 38.736 268.283 38.372 268.267 37.972H269.683C269.707 38.252 269.839 38.488 270.079 38.68C270.327 38.864 270.635 38.956 271.003 38.956C271.387 38.956 271.683 38.884 271.891 38.74C272.107 38.588 272.215 38.396 272.215 38.164C272.215 37.916 272.095 37.732 271.855 37.612C271.623 37.492 271.251 37.36 270.739 37.216C270.243 37.08 269.839 36.948 269.527 36.82C269.215 36.692 268.943 36.496 268.711 36.232C268.487 35.968 268.375 35.62 268.375 35.188C268.375 34.836 268.479 34.516 268.687 34.228C268.895 33.932 269.191 33.7 269.575 33.532C269.967 33.364 270.415 33.28 270.919 33.28C271.671 33.28 272.275 33.472 272.731 33.856C273.195 34.232 273.443 34.748 273.475 35.404H272.107C272.083 35.108 271.963 34.872 271.747 34.696C271.531 34.52 271.239 34.432 270.871 34.432C270.511 34.432 270.235 34.5 270.043 34.636C269.851 34.772 269.755 34.952 269.755 35.176C269.755 35.352 269.819 35.5 269.947 35.62C270.075 35.74 270.231 35.836 270.415 35.908C270.599 35.972 270.871 36.056 271.231 36.16C271.711 36.288 272.103 36.42 272.407 36.556C272.719 36.684 272.987 36.876 273.211 37.132C273.435 37.388 273.551 37.728 273.559 38.152C273.559 38.528 273.455 38.864 273.247 39.16C273.039 39.456 272.743 39.688 272.359 39.856C271.983 40.024 271.539 40.108 271.027 40.108ZM276.633 34.504V38.164C276.633 38.412 276.689 38.592 276.801 38.704C276.921 38.808 277.121 38.86 277.401 38.86H278.241V40H277.161C276.545 40 276.073 39.856 275.745 39.568C275.417 39.28 275.253 38.812 275.253 38.164V34.504H274.473V33.388H275.253V31.744H276.633V33.388H278.241V34.504H276.633Z" fill="#3366FF"/>
<path d="M12 17.5C12 18.3284 12.6716 19 13.5 19C14.3284 19 15 18.3284 15 17.5V16C15 14.3431 16.3431 13 18 13C19.6569 13 21 14.3431 21 16V17.5C21 18.3284 21.6716 19 22.5 19C23.3284 19 24 18.3284 24 17.5V11.5C24 10.5557 23.5554 9.66656 22.8 9.1L19.8 6.85C18.7333 6.05 17.2667 6.05 16.2 6.85L13.2 9.1C12.4446 9.66656 12 10.5557 12 11.5V17.5ZM13 21C11.3431 21 10 19.6569 10 18V10.5C10 9.55573 10.4446 8.66656 11.2 8.1L16.2 4.35C17.2667 3.55 18.7333 3.55 19.8 4.35L24.8 8.1C25.5554 8.66656 26 9.55573 26 10.5V18C26 19.6569 24.6569 21 23 21H22C20.3431 21 19 19.6569 19 18V16C19 15.4477 18.5523 15 18 15C17.4477 15 17 15.4477 17 16V18C17 19.6569 15.6569 21 14 21H13Z" fill="black" fill-opacity="0.87"/>
<path d="M4.65984 33.28C5.16384 33.28 5.61184 33.388 6.00384 33.604C6.40384 33.82 6.71584 34.14 6.93984 34.564C7.17184 34.988 7.28784 35.5 7.28784 36.1V40H5.93184V36.304C5.93184 35.712 5.78384 35.26 5.48784 34.948C5.19184 34.628 4.78784 34.468 4.27584 34.468C3.76384 34.468 3.35584 34.628 3.05184 34.948C2.75584 35.26 2.60784 35.712 2.60784 36.304V40H1.23984V31.12H2.60784V34.156C2.83984 33.876 3.13184 33.66 3.48384 33.508C3.84384 33.356 4.23584 33.28 4.65984 33.28ZM11.9008 40.108C11.2768 40.108 10.7128 39.968 10.2088 39.688C9.70481 39.4 9.30881 39 9.02081 38.488C8.73281 37.968 8.58881 37.368 8.58881 36.688C8.58881 36.016 8.73681 35.42 9.03281 34.9C9.32881 34.38 9.73281 33.98 10.2448 33.7C10.7568 33.42 11.3288 33.28 11.9608 33.28C12.5928 33.28 13.1648 33.42 13.6768 33.7C14.1888 33.98 14.5928 34.38 14.8888 34.9C15.1848 35.42 15.3328 36.016 15.3328 36.688C15.3328 37.36 15.1808 37.956 14.8768 38.476C14.5728 38.996 14.1568 39.4 13.6288 39.688C13.1088 39.968 12.5328 40.108 11.9008 40.108ZM11.9008 38.92C12.2528 38.92 12.5808 38.836 12.8848 38.668C13.1968 38.5 13.4488 38.248 13.6408 37.912C13.8328 37.576 13.9288 37.168 13.9288 36.688C13.9288 36.208 13.8368 35.804 13.6528 35.476C13.4688 35.14 13.2248 34.888 12.9208 34.72C12.6168 34.552 12.2888 34.468 11.9368 34.468C11.5848 34.468 11.2568 34.552 10.9528 34.72C10.6568 34.888 10.4208 35.14 10.2448 35.476C10.0688 35.804 9.98081 36.208 9.98081 36.688C9.98081 37.4 10.1608 37.952 10.5208 38.344C10.8888 38.728 11.3488 38.92 11.9008 38.92ZM24.6892 33.28C25.2092 33.28 25.6732 33.388 26.0812 33.604C26.4972 33.82 26.8212 34.14 27.0532 34.564C27.2932 34.988 27.4132 35.5 27.4132 36.1V40H26.0572V36.304C26.0572 35.712 25.9092 35.26 25.6132 34.948C25.3172 34.628 24.9132 34.468 24.4012 34.468C23.8892 34.468 23.4812 34.628 23.1772 34.948C22.8812 35.26 22.7332 35.712 22.7332 36.304V40H21.3772V36.304C21.3772 35.712 21.2292 35.26 20.9332 34.948C20.6372 34.628 20.2332 34.468 19.7212 34.468C19.2092 34.468 18.8012 34.628 18.4972 34.948C18.2012 35.26 18.0532 35.712 18.0532 36.304V40H16.6852V33.388H18.0532V34.144C18.2772 33.872 18.5612 33.66 18.9052 33.508C19.2492 33.356 19.6172 33.28 20.0092 33.28C20.5372 33.28 21.0092 33.392 21.4252 33.616C21.8412 33.84 22.1612 34.164 22.3852 34.588C22.5852 34.188 22.8972 33.872 23.3212 33.64C23.7452 33.4 24.2012 33.28 24.6892 33.28ZM35.2139 36.532C35.2139 36.78 35.1979 37.004 35.1659 37.204H30.1139C30.1539 37.732 30.3499 38.156 30.7019 38.476C31.0539 38.796 31.4859 38.956 31.9979 38.956C32.7339 38.956 33.2539 38.648 33.5579 38.032H35.0339C34.8339 38.64 34.4699 39.14 33.9419 39.532C33.4219 39.916 32.7739 40.108 31.9979 40.108C31.3659 40.108 30.7979 39.968 30.2939 39.688C29.7979 39.4 29.4059 39 29.1179 38.488C28.8379 37.968 28.6979 37.368 28.6979 36.688C28.6979 36.008 28.8339 35.412 29.1059 34.9C29.3859 34.38 29.7739 33.98 30.2699 33.7C30.7739 33.42 31.3499 33.28 31.9979 33.28C32.6219 33.28 33.1779 33.416 33.6659 33.688C34.1539 33.96 34.5339 34.344 34.8059 34.84C35.0779 35.328 35.2139 35.892 35.2139 36.532ZM33.7859 36.1C33.7779 35.596 33.5979 35.192 33.2459 34.888C32.8939 34.584 32.4579 34.432 31.9379 34.432C31.4659 34.432 31.0619 34.584 30.7259 34.888C30.3899 35.184 30.1899 35.588 30.1259 36.1H33.7859Z" fill="black" fill-opacity="0.87"/>
<g clip-path="url(#clip0_1094_1089)">
<path d="M57 21C55.3431 21 54 19.6569 54 18V10.5C54 9.55573 54.4446 8.66656 55.2 8.1L60.2 4.35C61.2667 3.55 62.7333 3.55 63.8 4.35L68.8 8.1C69.5554 8.66656 70 9.55573 70 10.5V18C70 19.6569 68.6569 21 67 21C65.3431 21 64 19.6569 64 18V16C64 14.8954 63.1046 14 62 14C60.8954 14 60 14.8954 60 16V18C60 19.6569 58.6569 21 57 21Z" fill="#3366FF"/>
</g>
<path d="M48.6598 33.28C49.1638 33.28 49.6118 33.388 50.0038 33.604C50.4038 33.82 50.7158 34.14 50.9398 34.564C51.1718 34.988 51.2878 35.5 51.2878 36.1V40H49.9318V36.304C49.9318 35.712 49.7838 35.26 49.4878 34.948C49.1918 34.628 48.7878 34.468 48.2758 34.468C47.7638 34.468 47.3558 34.628 47.0518 34.948C46.7558 35.26 46.6078 35.712 46.6078 36.304V40H45.2398V31.12H46.6078V34.156C46.8398 33.876 47.1318 33.66 47.4838 33.508C47.8438 33.356 48.2358 33.28 48.6598 33.28ZM55.9008 40.108C55.2768 40.108 54.7128 39.968 54.2088 39.688C53.7048 39.4 53.3088 39 53.0208 38.488C52.7328 37.968 52.5888 37.368 52.5888 36.688C52.5888 36.016 52.7368 35.42 53.0328 34.9C53.3288 34.38 53.7328 33.98 54.2448 33.7C54.7568 33.42 55.3288 33.28 55.9608 33.28C56.5928 33.28 57.1648 33.42 57.6768 33.7C58.1888 33.98 58.5928 34.38 58.8888 34.9C59.1848 35.42 59.3328 36.016 59.3328 36.688C59.3328 37.36 59.1808 37.956 58.8768 38.476C58.5728 38.996 58.1568 39.4 57.6288 39.688C57.1088 39.968 56.5328 40.108 55.9008 40.108ZM55.9008 38.92C56.2528 38.92 56.5808 38.836 56.8848 38.668C57.1968 38.5 57.4488 38.248 57.6408 37.912C57.8328 37.576 57.9288 37.168 57.9288 36.688C57.9288 36.208 57.8368 35.804 57.6528 35.476C57.4688 35.14 57.2248 34.888 56.9208 34.72C56.6168 34.552 56.2888 34.468 55.9368 34.468C55.5848 34.468 55.2568 34.552 54.9528 34.72C54.6568 34.888 54.4208 35.14 54.2448 35.476C54.0688 35.804 53.9808 36.208 53.9808 36.688C53.9808 37.4 54.1608 37.952 54.5208 38.344C54.8888 38.728 55.3488 38.92 55.9008 38.92ZM68.6892 33.28C69.2092 33.28 69.6732 33.388 70.0812 33.604C70.4972 33.82 70.8212 34.14 71.0532 34.564C71.2932 34.988 71.4132 35.5 71.4132 36.1V40H70.0572V36.304C70.0572 35.712 69.9092 35.26 69.6132 34.948C69.3172 34.628 68.9132 34.468 68.4012 34.468C67.8892 34.468 67.4812 34.628 67.1772 34.948C66.8812 35.26 66.7332 35.712 66.7332 36.304V40H65.3772V36.304C65.3772 35.712 65.2292 35.26 64.9332 34.948C64.6372 34.628 64.2332 34.468 63.7212 34.468C63.2092 34.468 62.8012 34.628 62.4972 34.948C62.2012 35.26 62.0532 35.712 62.0532 36.304V40H60.6852V33.388H62.0532V34.144C62.2772 33.872 62.5612 33.66 62.9052 33.508C63.2492 33.356 63.6172 33.28 64.0092 33.28C64.5372 33.28 65.0092 33.392 65.4252 33.616C65.8412 33.84 66.1612 34.164 66.3852 34.588C66.5852 34.188 66.8972 33.872 67.3212 33.64C67.7452 33.4 68.2012 33.28 68.6892 33.28ZM79.2139 36.532C79.2139 36.78 79.1979 37.004 79.1659 37.204H74.1139C74.1539 37.732 74.3499 38.156 74.7019 38.476C75.0539 38.796 75.4859 38.956 75.9979 38.956C76.7339 38.956 77.2539 38.648 77.5579 38.032H79.0339C78.8339 38.64 78.4699 39.14 77.9419 39.532C77.4219 39.916 76.7739 40.108 75.9979 40.108C75.3659 40.108 74.7979 39.968 74.2939 39.688C73.7979 39.4 73.4059 39 73.1179 38.488C72.8379 37.968 72.6979 37.368 72.6979 36.688C72.6979 36.008 72.8339 35.412 73.1059 34.9C73.3859 34.38 73.7739 33.98 74.2699 33.7C74.7739 33.42 75.3499 33.28 75.9979 33.28C76.6219 33.28 77.1779 33.416 77.6659 33.688C78.1539 33.96 78.5339 34.344 78.8059 34.84C79.0779 35.328 79.2139 35.892 79.2139 36.532ZM77.7859 36.1C77.7779 35.596 77.5979 35.192 77.2459 34.888C76.8939 34.584 76.4579 34.432 75.9379 34.432C75.4659 34.432 75.0619 34.584 74.7259 34.888C74.3899 35.184 74.1899 35.588 74.1259 36.1H77.7859Z" fill="#3366FF"/>
<path d="M122 12C122.55 12 123.021 11.8042 123.413 11.4125C123.804 11.0208 124 10.55 124 10C124 9.45 123.804 8.97917 123.413 8.5875C123.021 8.19583 122.55 8 122 8C121.45 8 120.979 8.19583 120.588 8.5875C120.196 8.97917 120 9.45 120 10C120 10.55 120.196 11.0208 120.588 11.4125C120.979 11.8042 121.45 12 122 12ZM120.672 18.0813C121.407 18.815 122.593 18.815 123.328 18.0813C124.703 16.7075 125.769 15.4345 126.525 14.2625C127.508 12.7375 128 11.3833 128 10.2C128 8.38333 127.421 6.89583 126.262 5.7375C125.104 4.57917 123.683 4 122 4C120.317 4 118.896 4.57917 117.737 5.7375C116.579 6.89583 116 8.38333 116 10.2C116 11.3833 116.492 12.7375 117.475 14.2625C118.231 15.4345 119.297 16.7075 120.672 18.0813ZM123.904 20.3C122.832 21.3083 121.168 21.3083 120.096 20.3C118.347 18.6551 116.978 17.1009 115.988 15.6375C114.663 13.6792 114 11.8667 114 10.2C114 7.7 114.804 5.70833 116.413 4.225C118.021 2.74167 119.883 2 122 2C124.117 2 125.979 2.74167 127.588 4.225C129.196 5.70833 130 7.7 130 10.2C130 11.8667 129.337 13.6792 128.012 15.6375C127.022 17.1009 125.653 18.6551 123.904 20.3Z" fill="black" fill-opacity="0.87"/>
<path d="M116.537 33.28C117.057 33.28 117.521 33.388 117.929 33.604C118.345 33.82 118.669 34.14 118.901 34.564C119.141 34.988 119.261 35.5 119.261 36.1V40H117.905V36.304C117.905 35.712 117.757 35.26 117.461 34.948C117.165 34.628 116.761 34.468 116.249 34.468C115.737 34.468 115.329 34.628 115.025 34.948C114.729 35.26 114.581 35.712 114.581 36.304V40H113.225V36.304C113.225 35.712 113.077 35.26 112.781 34.948C112.485 34.628 112.081 34.468 111.569 34.468C111.057 34.468 110.649 34.628 110.345 34.948C110.049 35.26 109.901 35.712 109.901 36.304V40H108.533V33.388H109.901V34.144C110.125 33.872 110.409 33.66 110.753 33.508C111.097 33.356 111.465 33.28 111.857 33.28C112.385 33.28 112.857 33.392 113.273 33.616C113.689 33.84 114.009 34.164 114.233 34.588C114.433 34.188 114.745 33.872 115.169 33.64C115.593 33.4 116.049 33.28 116.537 33.28ZM120.546 36.664C120.546 36 120.682 35.412 120.954 34.9C121.234 34.388 121.61 33.992 122.082 33.712C122.562 33.424 123.09 33.28 123.666 33.28C124.186 33.28 124.638 33.384 125.022 33.592C125.414 33.792 125.726 34.044 125.958 34.348V33.388H127.338V40H125.958V39.016C125.726 39.328 125.41 39.588 125.01 39.796C124.61 40.004 124.154 40.108 123.642 40.108C123.074 40.108 122.554 39.964 122.082 39.676C121.61 39.38 121.234 38.972 120.954 38.452C120.682 37.924 120.546 37.328 120.546 36.664ZM125.958 36.688C125.958 36.232 125.862 35.836 125.67 35.5C125.486 35.164 125.242 34.908 124.938 34.732C124.634 34.556 124.306 34.468 123.954 34.468C123.602 34.468 123.274 34.556 122.97 34.732C122.666 34.9 122.418 35.152 122.226 35.488C122.042 35.816 121.95 36.208 121.95 36.664C121.95 37.12 122.042 37.52 122.226 37.864C122.418 38.208 122.666 38.472 122.97 38.656C123.282 38.832 123.61 38.92 123.954 38.92C124.306 38.92 124.634 38.832 124.938 38.656C125.242 38.48 125.486 38.224 125.67 37.888C125.862 37.544 125.958 37.144 125.958 36.688ZM130.502 34.36C130.734 34.056 131.05 33.8 131.45 33.592C131.85 33.384 132.302 33.28 132.806 33.28C133.382 33.28 133.906 33.424 134.378 33.712C134.858 33.992 135.234 34.388 135.506 34.9C135.778 35.412 135.914 36 135.914 36.664C135.914 37.328 135.778 37.924 135.506 38.452C135.234 38.972 134.858 39.38 134.378 39.676C133.906 39.964 133.382 40.108 132.806 40.108C132.302 40.108 131.854 40.008 131.462 39.808C131.07 39.6 130.75 39.344 130.502 39.04V43.144H129.134V33.388H130.502V34.36ZM134.522 36.664C134.522 36.208 134.426 35.816 134.234 35.488C134.05 35.152 133.802 34.9 133.49 34.732C133.186 34.556 132.858 34.468 132.506 34.468C132.162 34.468 131.834 34.556 131.522 34.732C131.218 34.908 130.97 35.164 130.778 35.5C130.594 35.836 130.502 36.232 130.502 36.688C130.502 37.144 130.594 37.544 130.778 37.888C130.97 38.224 131.218 38.48 131.522 38.656C131.834 38.832 132.162 38.92 132.506 38.92C132.858 38.92 133.186 38.832 133.49 38.656C133.802 38.472 134.05 38.208 134.234 37.864C134.426 37.52 134.522 37.12 134.522 36.664Z" fill="black" fill-opacity="0.87"/>
<path d="M166 12C166.55 12 167.021 11.8042 167.413 11.4125C167.804 11.0208 168 10.55 168 10C168 9.45 167.804 8.97917 167.413 8.5875C167.021 8.19583 166.55 8 166 8C165.45 8 164.979 8.19583 164.588 8.5875C164.196 8.97917 164 9.45 164 10C164 10.55 164.196 11.0208 164.588 11.4125C164.979 11.8042 165.45 12 166 12ZM167.904 20.3C166.832 21.3083 165.168 21.3083 164.096 20.3C162.347 18.6551 160.978 17.1009 159.988 15.6375C158.663 13.6792 158 11.8667 158 10.2C158 7.7 158.804 5.70833 160.413 4.225C162.021 2.74167 163.883 2 166 2C168.117 2 169.979 2.74167 171.588 4.225C173.196 5.70833 174 7.7 174 10.2C174 11.8667 173.337 13.6792 172.012 15.6375C171.022 17.1009 169.653 18.6551 167.904 20.3Z" fill="#3366FF"/>
<path d="M160.537 33.28C161.057 33.28 161.521 33.388 161.929 33.604C162.345 33.82 162.669 34.14 162.901 34.564C163.141 34.988 163.261 35.5 163.261 36.1V40H161.905V36.304C161.905 35.712 161.757 35.26 161.461 34.948C161.165 34.628 160.761 34.468 160.249 34.468C159.737 34.468 159.329 34.628 159.025 34.948C158.729 35.26 158.581 35.712 158.581 36.304V40H157.225V36.304C157.225 35.712 157.077 35.26 156.781 34.948C156.485 34.628 156.081 34.468 155.569 34.468C155.057 34.468 154.649 34.628 154.345 34.948C154.049 35.26 153.901 35.712 153.901 36.304V40H152.533V33.388H153.901V34.144C154.125 33.872 154.409 33.66 154.753 33.508C155.097 33.356 155.465 33.28 155.857 33.28C156.385 33.28 156.857 33.392 157.273 33.616C157.689 33.84 158.009 34.164 158.233 34.588C158.433 34.188 158.745 33.872 159.169 33.64C159.593 33.4 160.049 33.28 160.537 33.28ZM164.546 36.664C164.546 36 164.682 35.412 164.954 34.9C165.234 34.388 165.61 33.992 166.082 33.712C166.562 33.424 167.09 33.28 167.666 33.28C168.186 33.28 168.638 33.384 169.022 33.592C169.414 33.792 169.726 34.044 169.958 34.348V33.388H171.338V40H169.958V39.016C169.726 39.328 169.41 39.588 169.01 39.796C168.61 40.004 168.154 40.108 167.642 40.108C167.074 40.108 166.554 39.964 166.082 39.676C165.61 39.38 165.234 38.972 164.954 38.452C164.682 37.924 164.546 37.328 164.546 36.664ZM169.958 36.688C169.958 36.232 169.862 35.836 169.67 35.5C169.486 35.164 169.242 34.908 168.938 34.732C168.634 34.556 168.306 34.468 167.954 34.468C167.602 34.468 167.274 34.556 166.97 34.732C166.666 34.9 166.418 35.152 166.226 35.488C166.042 35.816 165.95 36.208 165.95 36.664C165.95 37.12 166.042 37.52 166.226 37.864C166.418 38.208 166.666 38.472 166.97 38.656C167.282 38.832 167.61 38.92 167.954 38.92C168.306 38.92 168.634 38.832 168.938 38.656C169.242 38.48 169.486 38.224 169.67 37.888C169.862 37.544 169.958 37.144 169.958 36.688ZM174.502 34.36C174.734 34.056 175.05 33.8 175.45 33.592C175.85 33.384 176.302 33.28 176.806 33.28C177.382 33.28 177.906 33.424 178.378 33.712C178.858 33.992 179.234 34.388 179.506 34.9C179.778 35.412 179.914 36 179.914 36.664C179.914 37.328 179.778 37.924 179.506 38.452C179.234 38.972 178.858 39.38 178.378 39.676C177.906 39.964 177.382 40.108 176.806 40.108C176.302 40.108 175.854 40.008 175.462 39.808C175.07 39.6 174.75 39.344 174.502 39.04V43.144H173.134V33.388H174.502V34.36ZM178.522 36.664C178.522 36.208 178.426 35.816 178.234 35.488C178.05 35.152 177.802 34.9 177.49 34.732C177.186 34.556 176.858 34.468 176.506 34.468C176.162 34.468 175.834 34.556 175.522 34.732C175.218 34.908 174.97 35.164 174.778 35.5C174.594 35.836 174.502 36.232 174.502 36.688C174.502 37.144 174.594 37.544 174.778 37.888C174.97 38.224 175.218 38.48 175.522 38.656C175.834 38.832 176.162 38.92 176.506 38.92C176.858 38.92 177.186 38.832 177.49 38.656C177.802 38.472 178.05 38.208 178.234 37.864C178.426 37.52 178.522 37.12 178.522 36.664Z" fill="#3366FF"/>
<defs>
<clipPath id="clip0_1094_1089">
<rect width="24" height="24" fill="white" transform="translate(50)"/>
</clipPath>
</defs>
</svg>
